<svg xmlns="http://www.w3.org/2000/svg" xmlns:xlink="http://www.w3.org/1999/xlink" width="1080" zoomAndPan="magnify" viewBox="0 0 810 809.999993" height="1080" preserveAspectRatio="xMidYMid meet" version="1.2"><defs><clipPath id="1e45a86b5d"><path d="M 66.378906 16 L 743.621094 16 L 743.621094 775 L 66.378906 775 Z M 66.378906 16 "/></clipPath><clipPath id="938c0b02f3"><path d="M 453.621094 29.613281 L 695 170.054688 C 725.101562 187.566406 743.621094 219.765625 743.621094 254.59375 L 743.621094 536.121094 C 743.621094 570.949219 725.101562 603.144531 695 620.660156 L 453.621094 761.097656 C 423.566406 778.585938 386.433594 778.585938 356.378906 761.097656 L 115 620.660156 C 84.898438 603.144531 66.378906 570.949219 66.378906 536.121094 L 66.378906 254.59375 C 66.378906 219.765625 84.898438 187.566406 115 170.054688 L 356.378906 29.613281 C 386.433594 12.128906 423.566406 12.128906 453.621094 29.613281 Z M 453.621094 29.613281 "/></clipPath><clipPath id="f3a0c3caa1"><path d="M 0.378906 0 L 677.621094 0 L 677.621094 759 L 0.378906 759 Z M 0.378906 0 "/></clipPath><clipPath id="5824c17070"><path d="M 387.621094 13.613281 L 629 154.054688 C 659.101562 171.566406 677.621094 203.765625 677.621094 238.59375 L 677.621094 520.121094 C 677.621094 554.949219 659.101562 587.144531 629 604.660156 L 387.621094 745.097656 C 357.566406 762.585938 320.433594 762.585938 290.378906 745.097656 L 49 604.660156 C 18.898438 587.144531 0.378906 554.949219 0.378906 520.121094 L 0.378906 238.59375 C 0.378906 203.765625 18.898438 171.566406 49 154.054688 L 290.378906 13.613281 C 320.433594 -3.871094 357.566406 -3.871094 387.621094 13.613281 Z M 387.621094 13.613281 "/></clipPath><clipPath id="7d58c65529"><rect x="0" width="678" y="0" height="759"/></clipPath><clipPath id="f6a6c47abd"><path d="M 58 12 L 752 12 L 752 779 L 58 779 Z M 58 12 "/></clipPath><clipPath id="b0ca98144c"><path d="M -102.816406 287.988281 L 567.574219 -97.355469 L 912.554688 502.8125 L 242.164062 888.15625 Z M -102.816406 287.988281 "/></clipPath><clipPath id="8ffbf17e00"><path d="M -102.816406 287.988281 L 567.574219 -97.355469 L 912.554688 502.8125 L 242.164062 888.15625 Z M -102.816406 287.988281 "/></clipPath><filter x="0%" y="0%" width="100%" filterUnits="objectBoundingBox" id="29318b5b9a" height="100%"><feColorMatrix values="0 0 0 0 1 0 0 0 0 1 0 0 0 0 1 0 0 0 1 0" type="matrix" in="SourceGraphic"/></filter><clipPath id="6d5224ffa4"><path d="M 1 0.355469 L 604.75 0.355469 L 604.75 604.105469 L 1 604.105469 Z M 1 0.355469 "/></clipPath><clipPath id="b8a0510a9f"><rect x="0" width="606" y="0" height="605"/></clipPath><clipPath id="7ad09a266e"><path d="M 1 0.28125 L 392.71875 0.28125 L 392.71875 93 L 1 93 Z M 1 0.28125 "/></clipPath><clipPath id="ace9f0e462"><rect x="0" width="393" y="0" height="94"/></clipPath><clipPath id="26fd9e1aa4"><path d="M 1 1 L 218.839844 1 L 218.839844 94 L 1 94 Z M 1 1 "/></clipPath><clipPath id="03ce660aad"><rect x="0" width="219" y="0" height="95"/></clipPath></defs><g id="fbe60ae0cc"><rect x="0" width="810" y="0" height="809.999993" style="fill:#ffffff;fill-opacity:1;stroke:none;"/><rect x="0" width="810" y="0" height="809.999993" style="fill:#ffffff;fill-opacity:1;stroke:none;"/><g clip-rule="nonzero" clip-path="url(#1e45a86b5d)"><g clip-rule="nonzero" clip-path="url(#938c0b02f3)"><g transform="matrix(1,0,0,1,66,16)"><g clip-path="url(#7d58c65529)"><g clip-rule="nonzero" clip-path="url(#f3a0c3caa1)"><g clip-rule="nonzero" clip-path="url(#5824c17070)"><path style=" stroke:none;fill-rule:nonzero;fill:#ffffff;fill-opacity:1;" d="M 0.378906 -14.671875 L 677.621094 -14.671875 L 677.621094 773.675781 L 0.378906 773.675781 Z M 0.378906 -14.671875 "/></g></g></g></g></g></g><g clip-rule="nonzero" clip-path="url(#f6a6c47abd)"><g clip-rule="nonzero" clip-path="url(#b0ca98144c)"><g clip-rule="nonzero" clip-path="url(#8ffbf17e00)"><path style=" stroke:none;fill-rule:nonzero;fill:#4154f5;fill-opacity:1;" d="M 700.382812 624.882812 L 454.734375 766.085938 C 426.917969 782.074219 381.707031 781.984375 353.949219 765.890625 L 108.839844 623.753906 C 81.085938 607.65625 58.554688 568.460938 58.617188 536.375 L 59.15625 253.035156 C 59.21875 220.953125 81.898438 181.839844 109.714844 165.851562 L 355.367188 24.652344 C 383.183594 8.660156 428.394531 8.75 456.148438 24.84375 L 701.257812 166.984375 C 729.011719 183.078125 751.542969 222.273438 751.480469 254.359375 L 750.941406 537.699219 C 750.878906 569.785156 728.199219 608.894531 700.382812 624.882812 Z M 115.007812 175.058594 C 90.542969 189.121094 69.832031 224.839844 69.777344 253.054688 L 69.234375 536.398438 C 69.179688 564.613281 89.757812 600.410156 114.167969 614.566406 L 359.277344 756.703125 C 383.6875 770.859375 424.976562 770.9375 449.441406 756.878906 L 695.089844 615.675781 C 719.554688 601.613281 740.265625 565.898438 740.320312 537.679688 L 740.863281 254.339844 C 740.917969 226.121094 720.339844 190.324219 695.929688 176.167969 L 450.820312 34.03125 C 426.410156 19.875 385.125 19.796875 360.660156 33.855469 Z M 115.007812 175.058594 "/></g></g></g><g mask="url(#4039c9c99b)" transform="matrix(1,0,0,1,102,93)"><g clip-path="url(#b8a0510a9f)"><g clip-rule="nonzero" clip-path="url(#6d5224ffa4)"><path style=" stroke:none;fill-rule:nonzero;fill:#68627a;fill-opacity:1;" d="M 604.996094 232.503906 C 604.996094 243.707031 595.933594 252.769531 584.730469 252.769531 C 578.984375 252.769531 573.820312 250.332031 570.121094 246.4375 L 511.863281 278 L 389.117188 278 L 389.117188 297.582031 L 522.480469 297.582031 C 524.625 288.714844 532.515625 282.1875 542.0625 282.1875 C 553.265625 282.1875 562.324219 291.25 562.324219 302.453125 C 562.324219 313.65625 553.265625 322.714844 542.0625 322.714844 C 532.515625 322.714844 524.625 316.089844 522.480469 307.324219 L 389.117188 307.324219 L 389.117188 326.804688 L 522.480469 326.804688 L 566.613281 359.832031 L 567.003906 404.546875 C 575.964844 406.691406 582.589844 414.679688 582.589844 424.226562 C 582.589844 435.429688 573.527344 444.488281 562.324219 444.488281 C 551.121094 444.488281 542.0625 435.429688 542.0625 424.226562 C 542.0625 414.777344 548.589844 406.980469 557.261719 404.742188 L 556.871094 364.703125 L 519.265625 336.546875 L 389.117188 336.546875 L 389.117188 356.128906 L 437.433594 356.128906 L 476.011719 387.5 L 504.652344 387.5 C 506.796875 379.996094 513.617188 374.445312 521.800781 374.445312 C 531.738281 374.445312 539.726562 382.53125 539.726562 392.371094 C 539.726562 402.304688 531.738281 410.292969 521.800781 410.292969 C 513.617188 410.292969 506.796875 404.839844 504.652344 397.242188 L 472.507812 397.242188 L 433.929688 365.871094 L 389.117188 365.871094 L 389.117188 388.277344 L 366.320312 388.277344 L 366.320312 455.398438 L 401.195312 498.554688 L 423.308594 497.972656 C 425.257812 488.8125 433.34375 481.996094 443.085938 481.996094 C 454.191406 481.996094 463.347656 491.054688 463.347656 502.257812 C 463.347656 513.460938 454.191406 522.519531 443.085938 522.519531 C 433.734375 522.519531 425.941406 516.1875 423.601562 507.714844 L 396.617188 508.394531 L 356.578125 458.90625 L 356.578125 388.277344 L 337.09375 388.277344 L 337.09375 508.6875 L 367.390625 564.605469 C 369.046875 564.117188 370.898438 563.828125 372.75 563.828125 C 383.953125 563.828125 393.011719 572.886719 393.011719 584.089844 C 393.011719 595.195312 383.953125 604.351562 372.75 604.351562 C 361.546875 604.351562 352.484375 595.195312 352.484375 584.089844 C 352.484375 578.246094 355.019531 573.082031 358.816406 569.378906 L 327.351562 511.121094 L 327.351562 388.277344 L 307.769531 388.277344 L 307.769531 521.742188 C 316.636719 523.882812 323.164062 531.871094 323.164062 541.324219 C 323.164062 552.527344 314.101562 561.585938 302.898438 561.585938 C 291.695312 561.585938 282.636719 552.527344 282.636719 541.324219 C 282.636719 531.871094 289.164062 523.980469 298.027344 521.742188 L 298.027344 388.277344 L 278.449219 388.277344 L 278.449219 521.742188 L 245.519531 565.871094 L 200.707031 566.261719 C 198.660156 575.222656 190.671875 581.847656 181.125 581.847656 C 169.921875 581.847656 160.863281 572.789062 160.863281 561.585938 C 160.863281 550.382812 169.921875 541.324219 181.125 541.324219 C 190.480469 541.324219 198.371094 547.851562 200.609375 556.519531 L 240.648438 556.226562 L 268.707031 518.527344 L 268.707031 388.277344 L 249.222656 388.277344 L 249.222656 436.695312 L 217.757812 475.273438 L 217.757812 503.910156 C 225.355469 506.054688 230.90625 512.875 230.90625 521.058594 C 230.90625 530.996094 222.820312 538.984375 212.886719 538.984375 C 203.046875 538.984375 194.960938 530.996094 194.960938 521.058594 C 194.960938 512.875 200.511719 506.054688 208.015625 503.910156 L 208.015625 471.863281 L 239.480469 433.285156 L 239.480469 388.277344 L 217.171875 388.277344 L 217.171875 365.578125 L 149.855469 365.578125 L 106.796875 400.457031 L 107.378906 422.570312 C 116.539062 424.519531 123.355469 432.601562 123.355469 442.34375 C 123.355469 453.546875 114.296875 462.609375 103.09375 462.609375 C 91.890625 462.609375 82.832031 453.546875 82.832031 442.34375 C 82.832031 432.992188 89.066406 425.296875 97.640625 422.863281 L 96.957031 395.875 L 146.445312 355.835938 L 217.171875 355.835938 L 217.171875 336.355469 L 96.664062 336.355469 L 40.746094 366.652344 C 41.234375 368.40625 41.527344 370.15625 41.527344 372.105469 C 41.527344 383.210938 32.464844 392.371094 21.261719 392.371094 C 10.058594 392.371094 1 383.210938 1 372.105469 C 1 360.902344 10.058594 351.84375 21.261719 351.84375 C 27.109375 351.84375 32.269531 354.277344 35.972656 358.175781 L 94.230469 326.613281 L 217.171875 326.613281 L 217.171875 307.03125 L 83.609375 307.03125 C 81.371094 315.894531 73.480469 322.421875 64.027344 322.421875 C 52.824219 322.421875 43.765625 313.363281 43.765625 302.160156 C 43.765625 290.957031 52.828125 281.898438 64.027344 281.898438 C 73.480469 281.898438 81.371094 288.519531 83.609375 297.289062 L 217.171875 297.289062 L 217.171875 277.804688 L 83.609375 277.804688 L 39.480469 244.78125 L 38.992188 200.066406 C 30.128906 197.921875 23.503906 189.933594 23.503906 180.386719 C 23.503906 169.183594 32.5625 160.125 43.765625 160.125 C 54.871094 160.125 64.027344 169.183594 64.027344 180.386719 C 64.027344 189.835938 57.503906 197.628906 48.734375 199.96875 L 49.125 239.910156 L 86.824219 268.0625 L 217.171875 268.0625 L 217.171875 248.480469 L 168.65625 248.480469 L 129.980469 217.113281 L 101.4375 217.113281 C 99.292969 224.613281 92.476562 230.167969 84.292969 230.167969 C 74.355469 230.167969 66.269531 222.082031 66.269531 212.242188 C 66.269531 202.304688 74.355469 194.316406 84.292969 194.316406 C 92.476562 194.316406 99.292969 199.871094 101.4375 207.371094 L 133.488281 207.371094 L 172.066406 238.738281 L 217.171875 238.738281 L 217.171875 216.332031 L 239.675781 216.332031 L 239.675781 149.210938 L 204.898438 106.054688 L 182.78125 106.640625 C 180.835938 115.796875 172.75 122.617188 163.007812 122.617188 C 151.804688 122.617188 142.742188 113.558594 142.742188 102.355469 C 142.742188 91.152344 151.804688 82.089844 163.007812 82.089844 C 172.261719 82.089844 180.054688 88.421875 182.394531 96.898438 L 209.378906 96.214844 L 249.417969 145.707031 L 249.417969 216.332031 L 268.996094 216.332031 L 268.996094 96.023438 L 238.699219 40.007812 C 236.945312 40.492188 235.191406 40.785156 233.246094 40.785156 C 222.042969 40.785156 212.980469 31.726562 212.980469 20.621094 C 212.980469 9.417969 222.042969 0.355469 233.246094 0.355469 C 244.449219 0.355469 253.507812 9.417969 253.507812 20.621094 C 253.507812 26.367188 251.070312 31.53125 247.175781 35.230469 L 278.738281 93.488281 L 278.738281 216.332031 L 298.320312 216.332031 L 298.320312 82.871094 C 289.457031 80.726562 282.929688 72.738281 282.929688 63.289062 C 282.929688 52.085938 291.988281 43.027344 303.191406 43.027344 C 314.296875 43.027344 323.453125 52.085938 323.453125 63.289062 C 323.453125 72.738281 316.828125 80.726562 308.0625 82.871094 L 308.0625 216.332031 L 327.546875 216.332031 L 327.546875 82.871094 L 360.472656 38.738281 L 405.285156 38.351562 C 407.429688 29.386719 415.417969 22.761719 424.964844 22.761719 C 436.167969 22.761719 445.226562 31.824219 445.226562 43.027344 C 445.226562 54.230469 436.167969 63.289062 424.964844 63.289062 C 415.515625 63.289062 407.625 56.761719 405.382812 48.089844 L 365.441406 48.382812 L 337.289062 86.085938 L 337.289062 216.332031 L 356.867188 216.332031 L 356.867188 167.917969 L 388.238281 129.339844 L 388.238281 100.699219 C 380.738281 98.554688 375.183594 91.734375 375.183594 83.550781 C 375.183594 73.617188 383.171875 65.628906 393.109375 65.628906 C 403.046875 65.628906 411.035156 73.617188 411.035156 83.550781 C 411.035156 91.734375 405.480469 98.554688 397.980469 100.699219 L 397.980469 132.75 L 366.609375 171.421875 L 366.609375 216.332031 L 389.113281 216.332031 L 389.113281 239.03125 L 456.136719 239.03125 L 499.296875 204.15625 L 498.613281 182.042969 C 489.554688 180.09375 482.734375 172.007812 482.734375 162.265625 C 482.734375 151.0625 491.792969 142.003906 502.996094 142.003906 C 514.199219 142.003906 523.261719 151.0625 523.261719 162.265625 C 523.261719 171.617188 516.929688 179.316406 508.355469 181.75 L 509.132812 208.734375 L 459.644531 248.773438 L 389.113281 248.773438 L 389.113281 268.257812 L 509.328125 268.257812 L 565.34375 237.960938 C 564.859375 236.207031 564.46875 234.453125 564.46875 232.503906 C 564.46875 221.398438 573.527344 212.242188 584.730469 212.242188 C 595.933594 212.242188 604.996094 221.398438 604.996094 232.503906 Z M 604.996094 232.503906 "/></g></g><mask id="4039c9c99b"><g filter="url(#29318b5b9a)"><rect x="0" width="810" y="0" height="809.999993" style="fill:#000000;fill-opacity:0.2;stroke:none;"/></g></mask></g><g transform="matrix(1,0,0,1,208,389)"><g clip-path="url(#ace9f0e462)"><g clip-rule="nonzero" clip-path="url(#7ad09a266e)"><path style=" stroke:none;fill-rule:nonzero;fill:#ffffff;fill-opacity:1;" d="M 15.398438 0.867188 L 378.574219 0.867188 C 386.207031 0.867188 392.394531 7.050781 392.394531 14.683594 L 392.394531 79.171875 C 392.394531 86.800781 386.207031 92.988281 378.574219 92.988281 L 15.398438 92.988281 C 7.769531 92.988281 1.582031 86.800781 1.582031 79.171875 L 1.582031 14.683594 C 1.582031 7.050781 7.769531 0.867188 15.398438 0.867188 Z M 15.398438 0.867188 "/></g><g style="fill:#9e47e5;fill-opacity:1;"><g transform="translate(12.68569, 70.479042)"><path style="stroke:none" d="M 4.734375 -55.03125 C 4.679688 -55.03125 4.765625 -55.054688 4.984375 -55.109375 C 5.253906 -55.160156 6.066406 -55.1875 7.421875 -55.1875 C 8.785156 -55.1875 10.773438 -55.1875 13.390625 -55.1875 L 22.453125 -55.1875 L 22.453125 6.203125 L 6.203125 6.203125 L 6.203125 -23.34375 C 6.203125 -33.25 6.1875 -40.675781 6.15625 -45.625 C 6.132812 -50.582031 6.097656 -53.171875 6.046875 -53.390625 C 5.878906 -54.097656 5.441406 -54.644531 4.734375 -55.03125 Z M 24.578125 -55.1875 L 30.609375 -55.1875 C 32.191406 -55.1875 33.515625 -55.1875 34.578125 -55.1875 C 35.640625 -55.1875 36.46875 -55.160156 37.0625 -55.109375 C 37.601562 -55.054688 38.144531 -54.988281 38.6875 -54.90625 C 39.238281 -54.820312 39.785156 -54.671875 40.328125 -54.453125 C 41.796875 -54.078125 43.207031 -53.46875 44.5625 -52.625 C 45.925781 -51.78125 47.164062 -50.785156 48.28125 -49.640625 C 49.40625 -48.492188 50.375 -47.226562 51.1875 -45.84375 C 52 -44.457031 52.625 -43.054688 53.0625 -41.640625 C 54.644531 -36.628906 54.289062 -31.835938 52 -27.265625 C 50.695312 -24.648438 48.957031 -22.472656 46.78125 -20.734375 C 44.601562 -18.992188 42.125 -17.71875 39.34375 -16.90625 C 37.382812 -16.414062 34.117188 -16.171875 29.546875 -16.171875 L 24.578125 -16.171875 L 24.578125 -27.671875 L 27.84375 -27.765625 C 29.90625 -27.765625 31.210938 -27.816406 31.765625 -27.921875 C 35.460938 -29.171875 37.175781 -31.972656 36.90625 -36.328125 C 36.738281 -39.378906 35.566406 -41.335938 33.390625 -42.203125 C 32.898438 -42.421875 31.296875 -42.53125 28.578125 -42.53125 L 24.578125 -42.53125 Z M 24.578125 -55.1875 "/></g></g><g style="fill:#9e47e5;fill-opacity:1;"><g transform="translate(68.933675, 70.479042)"><path style="stroke:none" d="M 22.859375 -29.3125 L 27.59375 -29.3125 C 28.957031 -29.3125 30.046875 -29.320312 30.859375 -29.34375 C 31.671875 -29.375 32.242188 -29.414062 32.578125 -29.46875 C 33.171875 -29.519531 33.929688 -29.765625 34.859375 -30.203125 C 36.003906 -30.804688 36.847656 -31.707031 37.390625 -32.90625 C 38.148438 -34.59375 38.285156 -36.390625 37.796875 -38.296875 C 37.304688 -40.304688 36.191406 -41.640625 34.453125 -42.296875 L 33.640625 -42.78125 L 28.25 -42.859375 L 24.65625 -42.859375 L 24.65625 -55.1875 C 27.425781 -55.1875 29.671875 -55.1875 31.390625 -55.1875 C 33.109375 -55.1875 34.457031 -55.1875 35.4375 -55.1875 C 36.414062 -55.1875 37.117188 -55.171875 37.546875 -55.140625 C 37.984375 -55.117188 38.285156 -55.109375 38.453125 -55.109375 C 43.078125 -54.722656 46.773438 -53.398438 49.546875 -51.140625 C 52.328125 -48.890625 54.15625 -45.453125 55.03125 -40.828125 C 55.738281 -36.359375 55.234375 -32.625 53.515625 -29.625 C 51.796875 -26.632812 49.0625 -24.84375 45.3125 -24.25 L 44.171875 -24.171875 L 45.234375 -23.921875 C 48.828125 -23.378906 51.273438 -21.609375 52.578125 -18.609375 C 52.953125 -17.847656 53.265625 -16.734375 53.515625 -15.265625 C 53.765625 -13.796875 53.992188 -11.921875 54.203125 -9.640625 C 54.859375 -1.140625 55.1875 3.953125 55.1875 5.640625 L 55.1875 6.203125 L 37.875 6.203125 L 37.71875 5.46875 C 37.664062 5.144531 37.625 4.585938 37.59375 3.796875 C 37.570312 3.003906 37.503906 2.007812 37.390625 0.8125 C 36.898438 -8.164062 36.25 -13.523438 35.4375 -15.265625 C 35.164062 -15.804688 34.238281 -16.242188 32.65625 -16.578125 C 32.0625 -16.679688 30.238281 -16.789062 27.1875 -16.90625 L 22.859375 -16.90625 L 22.859375 6.203125 L 6.28125 6.203125 L 6.28125 -23.515625 C 6.34375 -30.703125 6.359375 -36.414062 6.328125 -40.65625 C 6.296875 -44.90625 6.28125 -47.765625 6.28125 -49.234375 C 6.175781 -52.003906 6.066406 -53.5 5.953125 -53.71875 C 5.679688 -54.375 5.25 -54.835938 4.65625 -55.109375 C 4.976562 -55.109375 5.359375 -55.109375 5.796875 -55.109375 C 6.234375 -55.109375 6.738281 -55.117188 7.3125 -55.140625 C 7.882812 -55.171875 8.550781 -55.1875 9.3125 -55.1875 L 22.859375 -55.1875 Z M 22.859375 -29.3125 "/></g></g><g style="fill:#9e47e5;fill-opacity:1;"><g transform="translate(129.426797, 70.479042)"><path style="stroke:none" d="M 29.796875 -55.671875 C 30.234375 -55.785156 30.613281 -55.84375 30.9375 -55.84375 C 31.15625 -55.84375 31.375 -55.84375 31.59375 -55.84375 L 31.921875 -55.921875 L 31.921875 -49.5625 C 31.921875 -45.257812 31.835938 -43.109375 31.671875 -43.109375 C 30.804688 -43.109375 29.554688 -42.726562 27.921875 -41.96875 C 23.078125 -39.675781 20.789062 -33.578125 21.0625 -23.671875 C 21.113281 -22.046875 21.289062 -20.222656 21.59375 -18.203125 C 21.894531 -16.191406 22.425781 -14.257812 23.1875 -12.40625 C 23.945312 -10.5625 24.976562 -8.957031 26.28125 -7.59375 C 27.59375 -6.226562 29.253906 -5.410156 31.265625 -5.140625 L 31.84375 -5.0625 L 31.921875 0.984375 L 31.921875 7.109375 L 31.109375 7.109375 C 28.984375 7.109375 26.859375 6.847656 24.734375 6.328125 C 22.609375 5.804688 20.59375 5.066406 18.6875 4.109375 C 16.789062 3.160156 15.023438 1.976562 13.390625 0.5625 C 11.753906 -0.84375 10.335938 -2.445312 9.140625 -4.25 C 6.367188 -8.332031 4.570312 -13.472656 3.75 -19.671875 C 3.695312 -20.160156 3.671875 -20.835938 3.671875 -21.703125 C 3.671875 -22.578125 3.671875 -23.644531 3.671875 -24.90625 C 3.671875 -26.101562 3.679688 -27.132812 3.703125 -28 C 3.734375 -28.875 3.78125 -29.582031 3.84375 -30.125 C 4.21875 -32.738281 4.867188 -35.28125 5.796875 -37.75 C 6.722656 -40.226562 7.929688 -42.53125 9.421875 -44.65625 C 10.921875 -46.78125 12.691406 -48.644531 14.734375 -50.25 C 16.773438 -51.851562 19.101562 -53.09375 21.71875 -53.96875 C 24.113281 -54.945312 26.804688 -55.515625 29.796875 -55.671875 Z M 33.796875 -49.5625 L 33.796875 -55.921875 L 34.53125 -55.921875 C 36.757812 -55.921875 38.945312 -55.617188 41.09375 -55.015625 C 43.25 -54.421875 45.28125 -53.59375 47.1875 -52.53125 C 49.09375 -51.46875 50.875 -50.1875 52.53125 -48.6875 C 54.195312 -47.195312 55.628906 -45.523438 56.828125 -43.671875 C 59.648438 -39.378906 61.414062 -34.566406 62.125 -29.234375 C 62.238281 -28.796875 62.304688 -28.15625 62.328125 -27.3125 C 62.359375 -26.46875 62.375 -25.5 62.375 -24.40625 C 62.257812 -21.25 61.875 -18.144531 61.21875 -15.09375 C 60.570312 -12.050781 59.40625 -9.144531 57.71875 -6.375 C 55.4375 -2.5625 52.539062 0.457031 49.03125 2.6875 C 45.519531 4.925781 41.476562 6.316406 36.90625 6.859375 C 36.46875 6.910156 36.082031 6.945312 35.75 6.96875 C 35.425781 7 35.15625 7.015625 34.9375 7.015625 L 34.296875 7.015625 L 34.203125 3.84375 C 34.148438 1.820312 34.148438 -0.191406 34.203125 -2.203125 L 34.296875 -5.140625 L 35.34375 -5.390625 C 37.363281 -5.984375 39 -6.90625 40.25 -8.15625 C 41.5 -9.414062 42.460938 -10.859375 43.140625 -12.484375 C 43.828125 -14.117188 44.304688 -15.875 44.578125 -17.75 C 44.847656 -19.632812 45.007812 -21.53125 45.0625 -23.4375 C 45.226562 -27.507812 44.765625 -31.207031 43.671875 -34.53125 C 41.984375 -39.707031 39.15625 -42.59375 35.1875 -43.1875 L 33.875 -43.4375 Z M 33.796875 -49.5625 "/></g></g><g style="fill:#9e47e5;fill-opacity:1;"><g transform="translate(195.471238, 70.479042)"><path style="stroke:none" d="M 4.8125 -54.9375 C 4.707031 -55 4.765625 -55.054688 4.984375 -55.109375 C 5.304688 -55.160156 6.515625 -55.1875 8.609375 -55.1875 C 10.703125 -55.1875 13.710938 -55.1875 17.640625 -55.1875 C 26.503906 -55.1875 30.992188 -55.132812 31.109375 -55.03125 C 31.210938 -54.476562 31.78125 -51.78125 32.8125 -46.9375 C 32.8125 -46.882812 32.851562 -46.65625 32.9375 -46.25 C 33.019531 -45.84375 33.113281 -45.394531 33.21875 -44.90625 C 33.332031 -44.414062 33.429688 -43.9375 33.515625 -43.46875 C 33.597656 -43.007812 33.664062 -42.671875 33.71875 -42.453125 C 34.59375 -38.535156 35.421875 -34.65625 36.203125 -30.8125 C 36.992188 -26.976562 37.769531 -23.101562 38.53125 -19.1875 C 38.75 -17.71875 38.914062 -16.925781 39.03125 -16.8125 L 40.078125 -20.578125 C 40.296875 -21.390625 40.566406 -22.515625 40.890625 -23.953125 C 41.222656 -25.398438 41.609375 -27.160156 42.046875 -29.234375 C 42.484375 -30.640625 42.863281 -32.078125 43.1875 -33.546875 C 43.507812 -35.023438 43.8125 -36.5 44.09375 -37.96875 C 44.363281 -38.882812 44.609375 -39.863281 44.828125 -40.90625 C 45.035156 -41.71875 45.25 -42.625 45.46875 -43.625 C 45.6875 -44.632812 45.878906 -45.601562 46.046875 -46.53125 C 47.347656 -51.863281 48 -54.5625 48 -54.625 L 48.171875 -55.1875 L 72.09375 -55.1875 L 72.09375 6.203125 L 56.171875 6.203125 L 56.171875 -43.265625 L 55.265625 -39.84375 C 53.640625 -33.414062 52.050781 -26.691406 50.5 -19.671875 C 48.945312 -12.648438 47.4375 -5.300781 45.96875 2.375 L 45.234375 6.203125 L 31.109375 6.203125 L 30.609375 3.421875 C 29.898438 -0.710938 29.25 -4.453125 28.65625 -7.796875 C 28.0625 -11.140625 27.515625 -14.117188 27.015625 -16.734375 C 26.097656 -21.691406 25.335938 -25.71875 24.734375 -28.8125 C 24.140625 -31.914062 23.707031 -34.175781 23.4375 -35.59375 C 23.15625 -37.007812 22.929688 -38.140625 22.765625 -38.984375 C 22.609375 -39.828125 22.503906 -40.382812 22.453125 -40.65625 C 22.453125 -40.875 22.4375 -40.765625 22.40625 -40.328125 C 22.382812 -39.890625 22.375 -38.773438 22.375 -36.984375 C 22.425781 -36.109375 22.4375 -35.085938 22.40625 -33.921875 C 22.382812 -32.753906 22.375 -31.460938 22.375 -30.046875 C 22.3125 -28.628906 22.28125 -26.882812 22.28125 -24.8125 C 22.28125 -22.75 22.28125 -20.382812 22.28125 -17.71875 L 22.28125 6.203125 L 6.046875 6.203125 L 6.046875 -23.84375 C 6.046875 -31.300781 6.046875 -37.207031 6.046875 -41.5625 C 6.046875 -45.914062 6.015625 -48.742188 5.953125 -50.046875 C 5.847656 -52.660156 5.742188 -54.078125 5.640625 -54.296875 C 5.523438 -54.566406 5.25 -54.78125 4.8125 -54.9375 Z M 4.8125 -54.9375 "/></g></g><g style="fill:#9e47e5;fill-opacity:1;"><g transform="translate(273.679624, 70.479042)"><path style="stroke:none" d="M 4.734375 -55.03125 C 4.679688 -55.03125 4.765625 -55.054688 4.984375 -55.109375 C 5.253906 -55.160156 6.066406 -55.1875 7.421875 -55.1875 C 8.785156 -55.1875 10.773438 -55.1875 13.390625 -55.1875 L 22.453125 -55.1875 L 22.453125 6.203125 L 6.203125 6.203125 L 6.203125 -23.34375 C 6.203125 -33.25 6.1875 -40.675781 6.15625 -45.625 C 6.132812 -50.582031 6.097656 -53.171875 6.046875 -53.390625 C 5.878906 -54.097656 5.441406 -54.644531 4.734375 -55.03125 Z M 24.578125 -55.1875 L 30.609375 -55.1875 C 32.191406 -55.1875 33.515625 -55.1875 34.578125 -55.1875 C 35.640625 -55.1875 36.46875 -55.160156 37.0625 -55.109375 C 37.601562 -55.054688 38.144531 -54.988281 38.6875 -54.90625 C 39.238281 -54.820312 39.785156 -54.671875 40.328125 -54.453125 C 41.796875 -54.078125 43.207031 -53.46875 44.5625 -52.625 C 45.925781 -51.78125 47.164062 -50.785156 48.28125 -49.640625 C 49.40625 -48.492188 50.375 -47.226562 51.1875 -45.84375 C 52 -44.457031 52.625 -43.054688 53.0625 -41.640625 C 54.644531 -36.628906 54.289062 -31.835938 52 -27.265625 C 50.695312 -24.648438 48.957031 -22.472656 46.78125 -20.734375 C 44.601562 -18.992188 42.125 -17.71875 39.34375 -16.90625 C 37.382812 -16.414062 34.117188 -16.171875 29.546875 -16.171875 L 24.578125 -16.171875 L 24.578125 -27.671875 L 27.84375 -27.765625 C 29.90625 -27.765625 31.210938 -27.816406 31.765625 -27.921875 C 35.460938 -29.171875 37.175781 -31.972656 36.90625 -36.328125 C 36.738281 -39.378906 35.566406 -41.335938 33.390625 -42.203125 C 32.898438 -42.421875 31.296875 -42.53125 28.578125 -42.53125 L 24.578125 -42.53125 Z M 24.578125 -55.1875 "/></g></g><g style="fill:#9e47e5;fill-opacity:1;"><g transform="translate(329.927609, 70.479042)"><path style="stroke:none" d="M 1.640625 -55.1875 L 49.71875 -55.1875 L 49.71875 -42.703125 L 1.640625 -42.703125 Z M 16.8125 -39.84375 L 16.40625 -40.25 L 34.046875 -40.25 L 34.046875 6.203125 L 17.546875 6.203125 L 17.546875 -16 C 17.546875 -23.625 17.546875 -29.351562 17.546875 -33.1875 C 17.546875 -37.019531 17.519531 -38.992188 17.46875 -39.109375 C 17.414062 -39.328125 17.195312 -39.570312 16.8125 -39.84375 Z M 16.8125 -39.84375 "/></g></g></g></g><g transform="matrix(1,0,0,1,295,306)"><g clip-path="url(#03ce660aad)"><g clip-rule="nonzero" clip-path="url(#26fd9e1aa4)"><path style=" stroke:none;fill-rule:nonzero;fill:#ffffff;fill-opacity:1;" d="M 15.800781 1.011719 L 204.1875 1.011719 C 207.855469 1.011719 211.367188 2.46875 213.960938 5.0625 C 216.550781 7.652344 218.007812 11.167969 218.007812 14.832031 L 218.007812 79.316406 C 218.007812 82.984375 216.550781 86.496094 213.960938 89.089844 C 211.367188 91.679688 207.855469 93.136719 204.1875 93.136719 L 15.800781 93.136719 C 8.167969 93.136719 1.980469 86.949219 1.980469 79.316406 L 1.980469 14.832031 C 1.980469 7.199219 8.167969 1.011719 15.800781 1.011719 Z M 15.800781 1.011719 "/></g><g style="fill:#9e47e5;fill-opacity:1;"><g transform="translate(13.08533, 70.626927)"><path style="stroke:none" d="M 4.65625 -55.1875 L 22.609375 -55.1875 L 22.609375 6.203125 L 6.046875 6.203125 L 6.046875 -28.40625 C 6.046875 -34.832031 6.046875 -39.910156 6.046875 -43.640625 C 6.046875 -47.367188 6.015625 -49.773438 5.953125 -50.859375 C 5.898438 -52.984375 5.738281 -54.179688 5.46875 -54.453125 L 5.3125 -54.625 C 5.195312 -54.726562 5.082031 -54.832031 4.96875 -54.9375 C 4.863281 -55.050781 4.757812 -55.132812 4.65625 -55.1875 Z M 24.734375 -55.1875 L 27.515625 -55.1875 L 28.8125 -52.09375 C 29.09375 -51.539062 29.503906 -50.585938 30.046875 -49.234375 C 30.535156 -47.921875 30.863281 -47.101562 31.03125 -46.78125 C 31.945312 -44.550781 32.988281 -41.976562 34.15625 -39.0625 C 35.332031 -36.15625 36.628906 -32.847656 38.046875 -29.140625 C 40.929688 -21.796875 42.726562 -16.984375 43.4375 -14.703125 L 43.765625 -13.875 L 43.84375 -18.609375 L 43.84375 -38.53125 C 43.726562 -48.820312 43.617188 -54.078125 43.515625 -54.296875 C 43.347656 -54.566406 43.019531 -54.863281 42.53125 -55.1875 L 59.921875 -55.1875 L 59.921875 6.203125 L 39.03125 6.203125 L 36.5 -0.25 C 34.59375 -5.09375 32.726562 -9.675781 30.90625 -14 C 29.082031 -18.320312 27.328125 -22.445312 25.640625 -26.375 L 24.734375 -28.5 Z M 24.734375 -55.1875 "/></g></g><g style="fill:#9e47e5;fill-opacity:1;"><g transform="translate(79.129772, 70.626927)"><path style="stroke:none" d="M 4.65625 -55.03125 C 6.125 -55.03125 8.65625 -55.054688 12.25 -55.109375 C 15.351562 -55.109375 19.773438 -55.117188 25.515625 -55.140625 C 31.253906 -55.171875 38.832031 -55.1875 48.25 -55.1875 L 48.25 -42.53125 L 22.453125 -42.53125 L 22.453125 -6.453125 L 50.625 -6.453125 L 50.625 -6.046875 C 50.625 -6.097656 50.582031 -5.945312 50.5 -5.59375 C 50.414062 -5.238281 50.304688 -4.757812 50.171875 -4.15625 C 50.035156 -3.5625 49.898438 -2.894531 49.765625 -2.15625 C 49.628906 -1.425781 49.476562 -0.707031 49.3125 0 C 48.5 3.863281 48.0625 5.847656 48 5.953125 C 47.945312 6.117188 40.984375 6.203125 27.109375 6.203125 L 6.375 6.203125 L 6.375 -23.4375 C 6.375 -33.394531 6.359375 -40.78125 6.328125 -45.59375 C 6.296875 -50.414062 6.226562 -53.015625 6.125 -53.390625 C 5.957031 -54.210938 5.46875 -54.757812 4.65625 -55.03125 Z M 25.140625 -31.1875 L 46.9375 -31.1875 L 46.9375 -18.703125 L 25.140625 -18.703125 Z M 25.140625 -31.1875 "/></g></g><g style="fill:#9e47e5;fill-opacity:1;"><g transform="translate(132.520469, 70.626927)"><path style="stroke:none" d="M 0.890625 -55.03125 C 0.835938 -55.03125 0.945312 -55.054688 1.21875 -55.109375 C 1.550781 -55.160156 2.34375 -55.1875 3.59375 -55.1875 C 4.84375 -55.1875 6.582031 -55.1875 8.8125 -55.1875 L 17.3125 -55.1875 L 17.546875 -53.46875 C 17.828125 -52.21875 17.992188 -51.050781 18.046875 -49.96875 C 18.097656 -49.75 18.164062 -49.3125 18.25 -48.65625 C 18.332031 -48 18.484375 -47.128906 18.703125 -46.046875 C 18.804688 -45.285156 18.882812 -44.644531 18.9375 -44.125 C 18.988281 -43.601562 19.046875 -43.238281 19.109375 -43.03125 C 19.160156 -42.644531 19.238281 -42.109375 19.34375 -41.421875 C 19.457031 -40.742188 19.566406 -39.863281 19.671875 -38.78125 C 19.722656 -38.394531 19.800781 -37.765625 19.90625 -36.890625 C 20.019531 -36.023438 20.1875 -34.882812 20.40625 -33.46875 C 20.519531 -32.925781 20.6875 -31.703125 20.90625 -29.796875 C 20.90625 -29.628906 20.941406 -29.175781 21.015625 -28.4375 C 21.097656 -27.707031 21.191406 -26.894531 21.296875 -26 C 21.410156 -25.101562 21.519531 -24.273438 21.625 -23.515625 C 21.738281 -22.753906 21.820312 -22.289062 21.875 -22.125 C 21.875 -21.851562 21.957031 -21.335938 22.125 -20.578125 C 22.175781 -20.304688 22.226562 -19.976562 22.28125 -19.59375 C 22.34375 -19.207031 22.398438 -18.71875 22.453125 -18.125 C 22.671875 -16.4375 22.832031 -15.59375 22.9375 -15.59375 C 23.050781 -15.59375 23.1875 -16.191406 23.34375 -17.390625 C 23.613281 -18.640625 23.976562 -20.40625 24.4375 -22.6875 C 24.90625 -24.976562 25.46875 -27.894531 26.125 -31.4375 C 26.394531 -32.738281 26.597656 -33.742188 26.734375 -34.453125 C 26.867188 -35.160156 26.960938 -35.597656 27.015625 -35.765625 C 27.015625 -35.765625 27.234375 -36.878906 27.671875 -39.109375 C 28.273438 -42.097656 28.601562 -43.617188 28.65625 -43.671875 C 28.925781 -44.929688 29.128906 -45.984375 29.265625 -46.828125 C 29.398438 -47.671875 29.523438 -48.304688 29.640625 -48.734375 C 29.640625 -48.898438 29.691406 -49.238281 29.796875 -49.75 C 29.910156 -50.269531 30.003906 -50.800781 30.078125 -51.34375 C 30.160156 -51.894531 30.253906 -52.398438 30.359375 -52.859375 C 30.472656 -53.328125 30.53125 -53.585938 30.53125 -53.640625 L 30.9375 -55.1875 L 37.71875 -55.1875 C 42.175781 -55.1875 44.40625 -55.132812 44.40625 -55.03125 C 44.40625 -54.914062 44.515625 -54.285156 44.734375 -53.140625 C 44.953125 -52.003906 45.28125 -50.398438 45.71875 -48.328125 C 45.882812 -47.460938 46.019531 -46.726562 46.125 -46.125 C 46.238281 -45.53125 46.320312 -45.097656 46.375 -44.828125 C 46.863281 -41.554688 47.40625 -38.328125 48 -35.140625 C 48.601562 -31.960938 49.226562 -28.765625 49.875 -25.546875 C 49.875 -25.390625 49.941406 -24.925781 50.078125 -24.15625 C 50.222656 -23.394531 50.363281 -22.578125 50.5 -21.703125 C 50.632812 -20.835938 50.753906 -20.050781 50.859375 -19.34375 C 50.972656 -18.632812 51.054688 -18.253906 51.109375 -18.203125 C 51.210938 -18.148438 51.296875 -17.742188 51.359375 -16.984375 C 51.460938 -16.546875 51.539062 -16.175781 51.59375 -15.875 C 51.644531 -15.582031 51.703125 -15.296875 51.765625 -15.015625 C 51.765625 -14.691406 51.789062 -14.421875 51.84375 -14.203125 C 51.894531 -14.253906 53.066406 -21.65625 55.359375 -36.40625 C 55.785156 -39.351562 56.117188 -41.65625 56.359375 -43.3125 C 56.609375 -44.96875 56.789062 -46.066406 56.90625 -46.609375 C 57.34375 -49.003906 57.585938 -50.691406 57.640625 -51.671875 C 57.804688 -52.328125 57.941406 -53.019531 58.046875 -53.75 C 58.148438 -54.488281 58.203125 -54.882812 58.203125 -54.9375 L 58.296875 -55.1875 L 72.578125 -55.1875 L 71.84375 -51.515625 C 71.132812 -47.484375 70.507812 -43.941406 69.96875 -40.890625 C 69.425781 -37.847656 68.9375 -35.238281 68.5 -33.0625 C 68.5 -33.0625 68.398438 -32.648438 68.203125 -31.828125 C 68.015625 -31.015625 67.796875 -29.992188 67.546875 -28.765625 C 67.304688 -27.546875 67.050781 -26.226562 66.78125 -24.8125 C 66.507812 -23.40625 66.25 -22.0625 66 -20.78125 C 65.757812 -19.5 65.554688 -18.378906 65.390625 -17.421875 C 65.234375 -16.472656 65.125 -15.890625 65.0625 -15.671875 C 64.6875 -13.878906 64.414062 -12.492188 64.25 -11.515625 C 64.082031 -10.535156 63.972656 -9.9375 63.921875 -9.71875 C 63.816406 -8.789062 63.625 -7.5625 63.34375 -6.03125 C 63.070312 -4.507812 62.722656 -2.660156 62.296875 -0.484375 C 61.472656 3.867188 61.035156 6.046875 60.984375 6.046875 C 60.929688 6.046875 60.535156 6.046875 59.796875 6.046875 C 59.066406 6.046875 57.992188 6.070312 56.578125 6.125 C 55.109375 6.175781 53.675781 6.203125 52.28125 6.203125 C 50.894531 6.203125 49.578125 6.203125 48.328125 6.203125 L 43.921875 6.203125 C 43.921875 5.929688 43.566406 3.875 42.859375 0.03125 C 42.148438 -3.800781 41.085938 -9.445312 39.671875 -16.90625 C 39.398438 -18.3125 39.070312 -20.019531 38.6875 -22.03125 C 38.3125 -24.050781 37.90625 -26.367188 37.46875 -28.984375 C 37.25 -29.847656 37.113281 -30.484375 37.0625 -30.890625 C 37.007812 -31.304688 36.957031 -31.648438 36.90625 -31.921875 C 36.90625 -32.085938 36.890625 -32.195312 36.859375 -32.25 C 36.828125 -32.300781 36.8125 -32.351562 36.8125 -32.40625 C 36.757812 -32.46875 36.707031 -32.46875 36.65625 -32.40625 C 36.601562 -32.351562 36.46875 -31.753906 36.25 -30.609375 C 36.132812 -30.179688 35.96875 -29.328125 35.75 -28.046875 C 35.539062 -26.765625 35.21875 -25.0625 34.78125 -22.9375 C 34.070312 -19.34375 33.457031 -16.226562 32.9375 -13.59375 C 32.425781 -10.957031 31.976562 -8.710938 31.59375 -6.859375 C 31.539062 -6.421875 31.445312 -5.847656 31.3125 -5.140625 C 31.175781 -4.429688 31.109375 -4.023438 31.109375 -3.921875 C 30.941406 -3.316406 30.804688 -2.71875 30.703125 -2.125 C 30.484375 -0.539062 30.15625 1.253906 29.71875 3.265625 C 29.664062 3.535156 29.625 3.820312 29.59375 4.125 C 29.5625 4.425781 29.492188 4.765625 29.390625 5.140625 L 29.234375 6.125 L 21.390625 6.125 C 16.222656 6.226562 13.472656 6.226562 13.140625 6.125 C 12.921875 6.125 12.785156 6.015625 12.734375 5.796875 C 12.679688 5.410156 12.597656 4.972656 12.484375 4.484375 C 12.378906 3.992188 12.273438 3.394531 12.171875 2.6875 C 12.109375 2.144531 11.78125 0.078125 11.1875 -3.515625 C 10.75 -5.796875 10.257812 -8.625 9.71875 -12 C 9.175781 -15.375 8.519531 -19.289062 7.75 -23.75 C 7.644531 -24.789062 7.484375 -25.988281 7.265625 -27.34375 C 6.828125 -30.007812 6.390625 -32.726562 5.953125 -35.5 C 5.523438 -38.28125 5.09375 -41.113281 4.65625 -44 C 4.269531 -46.445312 3.984375 -48.320312 3.796875 -49.625 C 3.609375 -50.9375 3.457031 -51.726562 3.34375 -52 C 2.90625 -53.53125 2.085938 -54.539062 0.890625 -55.03125 Z M 0.890625 -55.03125 "/></g></g></g></g></g></svg>
